<svg width="21" height="20" viewBox="0 0 21 20" fill="none" xmlns="http://www.w3.org/2000/svg">
<path d="M8.77322 18.1428C8.77322 18.6162 8.38655 18.9999 7.90958 18.9999M8.77322 18.1428C8.77322 17.6694 8.38655 17.2857 7.90958 17.2857M8.77322 18.1428H7.04594M7.90958 18.9999C7.43261 18.9999 7.04594 18.6162 7.04594 18.1428M7.90958 18.9999V18.1428C7.90958 18.4205 7.90958 18.6379 7.90958 17.2857M7.04594 18.1428C7.04594 17.6694 7.43261 17.2857 7.90958 17.2857M18.2732 18.1428C18.2732 18.6162 17.8866 18.9999 17.4096 18.9999M18.2732 18.1428C18.2732 17.6694 17.8866 17.2857 17.4096 17.2857M18.2732 18.1428H16.5459M17.4096 18.9999C16.9326 18.9999 16.5459 18.6162 16.5459 18.1428M17.4096 18.9999V17.2857M16.5459 18.1428C16.5459 17.6694 16.9326 17.2857 17.4096 17.2857M1.00049 1H4.45503L6.76958 12.4771C6.84855 12.8717 7.06486 13.2262 7.38064 13.4785C7.69642 13.7308 8.09155 13.8648 8.49685 13.8571H16.8914C17.2967 13.8648 17.6918 13.7308 18.0076 13.4785C18.3234 13.2262 18.5397 12.8717 18.6187 12.4771L20.0005 5.2857H5.31867" stroke="#111111" stroke-width="1.5" stroke-linecap="round" stroke-linejoin="round"/>
</svg>
