<svg width="11" height="8" viewBox="0 0 11 8" fill="none" xmlns="http://www.w3.org/2000/svg">
<path d="M10.8502 3.61777L7.57677 0.158303C7.37705 -0.0527676 7.05314 -0.0527676 6.85342 0.158303C6.65366 0.369417 6.65366 0.711644 6.85342 0.922758L9.2537 3.45945H0.511471C0.229016 3.45945 0 3.70149 0 3.99999C0 4.29846 0.229016 4.54054 0.511471 4.54054H9.2537L6.85351 7.07723C6.65375 7.28834 6.65375 7.63057 6.85351 7.84169C6.95334 7.94716 7.08428 8 7.21518 8C7.34607 8 7.47697 7.94716 7.57685 7.84169L10.8502 4.38222C11.0499 4.17111 11.0499 3.82888 10.8502 3.61777Z" fill="#111111"/>
</svg>
