<svg width="15" height="12" viewBox="0 0 15 12" fill="none" xmlns="http://www.w3.org/2000/svg">
<path d="M13.1042 3.55282C13.1128 3.67363 13.1128 3.79446 13.1128 3.91527C13.1128 7.60001 10.3081 11.8457 5.18185 11.8457C3.60255 11.8457 2.13546 11.3883 0.901367 10.5945C1.12576 10.6203 1.34148 10.629 1.5745 10.629C2.87761 10.629 4.0772 10.1889 5.03513 9.43811C3.80967 9.41221 2.7827 8.60968 2.42886 7.50511C2.60148 7.53098 2.77407 7.54824 2.95531 7.54824C3.20557 7.54824 3.45586 7.51371 3.68886 7.45334C2.41162 7.19443 1.45366 6.07262 1.45366 4.7178V4.6833C1.82474 4.8904 2.25628 5.01984 2.71363 5.03708C1.96282 4.53656 1.47093 3.68226 1.47093 2.71576C1.47093 2.198 1.60899 1.72339 1.85064 1.30917C3.22281 3.00054 5.28539 4.10508 7.59821 4.22592C7.55507 4.01881 7.52917 3.8031 7.52917 3.58735C7.52917 2.0513 8.7719 0.800049 10.3167 0.800049C11.1192 0.800049 11.8442 1.1366 12.3533 1.68025C12.9833 1.55944 13.5874 1.32644 14.1225 1.00716C13.9153 1.65438 13.4752 2.19803 12.897 2.54318C13.458 2.48281 14.0017 2.32744 14.5022 2.11173C14.1225 2.66399 13.6479 3.15585 13.1042 3.55282V3.55282Z" fill="#A0A0A0"/>
</svg>
