<svg width="17" height="14" viewBox="0 0 17 14" fill="none" xmlns="http://www.w3.org/2000/svg">
<path d="M11.2275 9.66666V1H1.00024V9.66666H11.2275ZM11.2275 9.66666H16.0002V6.33333L13.9548 4.33333H11.2275V9.66666ZM5.77297 11.3333C5.77297 12.2538 5.00982 13 4.06843 13C3.12703 13 2.36388 12.2538 2.36388 11.3333C2.36388 10.4128 3.12703 9.66666 4.06843 9.66666C5.00982 9.66666 5.77297 10.4128 5.77297 11.3333ZM14.6366 11.3333C14.6366 12.2538 13.8735 13 12.9321 13C11.9907 13 11.2275 12.2538 11.2275 11.3333C11.2275 10.4128 11.9907 9.66666 12.9321 9.66666C13.8735 9.66666 14.6366 10.4128 14.6366 11.3333Z" stroke="#111111" stroke-width="1.1" stroke-linecap="round" stroke-linejoin="round"/>
</svg>
