<svg width="13" height="12" viewBox="0 0 13 12" fill="none" xmlns="http://www.w3.org/2000/svg">
<path d="M6.70385 2.89996C5.0003 2.89996 3.6262 4.26261 3.6262 5.95199C3.6262 7.64136 5.0003 9.00401 6.70385 9.00401C8.40741 9.00401 9.78151 7.64136 9.78151 5.95199C9.78151 4.26261 8.40741 2.89996 6.70385 2.89996ZM6.70385 7.9362C5.60297 7.9362 4.70298 7.04636 4.70298 5.95199C4.70298 4.85761 5.60029 3.96777 6.70385 3.96777C7.80742 3.96777 8.70473 4.85761 8.70473 5.95199C8.70473 7.04636 7.80474 7.9362 6.70385 7.9362V7.9362ZM10.6252 2.77511C10.6252 3.17089 10.3038 3.48699 9.9074 3.48699C9.50829 3.48699 9.18955 3.16824 9.18955 2.77511C9.18955 2.38199 9.51097 2.06324 9.9074 2.06324C10.3038 2.06324 10.6252 2.38199 10.6252 2.77511ZM12.6636 3.49761C12.6181 2.54402 12.3984 1.69933 11.694 1.0034C10.9922 0.30746 10.1404 0.0896483 9.17883 0.0418359C8.18777 -0.0139453 5.21726 -0.0139453 4.2262 0.0418359C3.26728 0.0869921 2.4155 0.304804 1.71104 1.00074C1.00658 1.69668 0.78962 2.54136 0.741406 3.49496C0.685156 4.47777 0.685156 7.42355 0.741406 8.40636C0.786941 9.35995 1.00658 10.2046 1.71104 10.9006C2.4155 11.5965 3.2646 11.8143 4.2262 11.8621C5.21726 11.9179 8.18777 11.9179 9.17883 11.8621C10.1404 11.817 10.9922 11.5992 11.694 10.9006C12.3958 10.2046 12.6154 9.35995 12.6636 8.40636C12.7199 7.42355 12.7199 4.48042 12.6636 3.49761V3.49761ZM11.3833 9.46089C11.1744 9.98151 10.7699 10.3826 10.2422 10.5924C9.45205 10.9032 7.57706 10.8315 6.70385 10.8315C5.83065 10.8315 3.95299 10.9006 3.16549 10.5924C2.6405 10.3853 2.23604 9.98417 2.02443 9.46089C1.71104 8.67729 1.78336 6.81792 1.78336 5.95199C1.78336 5.08605 1.71372 3.22402 2.02443 2.44308C2.23336 1.92246 2.63782 1.52137 3.16549 1.31152C3.95566 1.00074 5.83065 1.07246 6.70385 1.07246C7.57706 1.07246 9.45472 1.0034 10.2422 1.31152C10.7672 1.51871 11.1717 1.9198 11.3833 2.44308C11.6967 3.22668 11.6243 5.08605 11.6243 5.95199C11.6243 6.81792 11.6967 8.67995 11.3833 9.46089Z" fill="#A0A0A0"/>
</svg>
