<svg width="14" height="11" viewBox="0 0 14 11" fill="none" xmlns="http://www.w3.org/2000/svg">
<path d="M1.80026 2.8799C1.8162 2.72318 1.7551 2.56646 1.63822 2.46021L0.440124 1.01521V0.800049H4.16457L7.04424 7.11396L9.57591 0.800049H13.1277V1.01521L12.1023 1.99802C12.0146 2.06443 11.9694 2.17599 11.988 2.28489V9.5099C11.9694 9.61881 12.0146 9.73037 12.1023 9.79678L13.1038 10.7796V10.9947H8.06435V10.7796L9.10305 9.77287C9.204 9.67193 9.204 9.64006 9.204 9.486V3.64755L6.31636 10.9762H5.92585L2.568 3.64755V8.55897C2.53878 8.76615 2.60785 8.97334 2.75396 9.12209L4.10347 10.7583V10.9735H0.278076V10.761L1.62759 9.12209C1.77104 8.97334 1.83746 8.7635 1.80026 8.55897V2.8799Z" fill="#A0A0A0"/>
</svg>
