<svg width="327" height="345" viewBox="0 0 327 345" fill="none" xmlns="http://www.w3.org/2000/svg">
<path d="M327 -2.01265e-05C325.607 0.00727205 324.222 0.0315935 322.831 0.0680544H322.824C316.652 0.238205 310.543 0.731626 304.94 1.5921C290.217 3.85268 273.068 6.55807 259.181 11.9907L259.176 11.998C258.872 12.105 258.573 12.2265 258.276 12.3481C234.909 21.7866 210.212 27.3529 188.743 40.807C167.58 54.0593 148.02 68.1137 126.524 80.7924C98.6015 97.2678 74.0625 115.207 51.157 138.041C31.9294 157.21 16.3916 188.989 8.90476 214.28C7.95674 217.484 7.10596 220.705 6.35241 223.926C-0.169446 251.607 -0.0940689 280.007 0.032333 308.449C0.0882415 321.045 2.93229 332.919 4.78942 345H327V-2.01265e-05Z" fill="#2B2B2B"/>
</svg>
