<svg width="22" height="19" viewBox="0 0 22 19" fill="none" xmlns="http://www.w3.org/2000/svg">
<g clip-path="url(#clip0)">
<path d="M20.6869 4.48494C20.4613 3.63011 19.7968 2.95687 18.953 2.7284C17.4237 2.31323 11.2911 2.31323 11.2911 2.31323C11.2911 2.31323 5.15861 2.31323 3.62921 2.7284C2.78546 2.9569 2.12093 3.63011 1.89539 4.48494C1.4856 6.03437 1.4856 9.26712 1.4856 9.26712C1.4856 9.26712 1.4856 12.4999 1.89539 14.0493C2.12093 14.9041 2.78546 15.5493 3.62921 15.7778C5.15861 16.193 11.2911 16.193 11.2911 16.193C11.2911 16.193 17.4236 16.193 18.953 15.7778C19.7968 15.5493 20.4613 14.9041 20.6869 14.0493C21.0967 12.4999 21.0967 9.26712 21.0967 9.26712C21.0967 9.26712 21.0967 6.03437 20.6869 4.48494ZM9.28544 12.2022V6.33203L14.411 9.26719L9.28544 12.2022Z" fill="#CDCDCD"/>
</g>
<defs>
<clipPath id="clip0">
<rect width="20.6835" height="18.5063" fill="white" transform="translate(0.949341)"/>
</clipPath>
</defs>
</svg>
